<svg xmlns="http://www.w3.org/2000/svg" style="display:none">
  <!-- All icons: 24x24, stroke style, minimal. currentColor. -->
  <symbol id="i-sun" viewBox="0 0 24 24" fill="none" stroke="currentColor" stroke-width="1.6" stroke-linecap="round" stroke-linejoin="round"><circle cx="12" cy="12" r="4.5"/><path d="M12 2v2M12 20v2M4.9 4.9l1.4 1.4M17.7 17.7l1.4 1.4M2 12h2M20 12h2M4.9 19.1l1.4-1.4M17.7 6.3l1.4-1.4"/></symbol>
  <symbol id="i-doc" viewBox="0 0 24 24" fill="none" stroke="currentColor" stroke-width="1.6" stroke-linecap="round" stroke-linejoin="round"><path d="M14 3H7a2 2 0 0 0-2 2v14a2 2 0 0 0 2 2h10a2 2 0 0 0 2-2V8Z"/><path d="M14 3v5h5M9 13h6M9 17h6"/></symbol>
  <symbol id="i-leaf" viewBox="0 0 24 24" fill="none" stroke="currentColor" stroke-width="1.6" stroke-linecap="round" stroke-linejoin="round"><path d="M4 20c0-8.8 6.5-15 16-14 1 9.4-4.6 15-14 15"/><path d="M4 20c1.8-6.4 6-10 11.5-11"/></symbol>
  <symbol id="i-award" viewBox="0 0 24 24" fill="none" stroke="currentColor" stroke-width="1.6" stroke-linecap="round" stroke-linejoin="round">
    <circle cx="12" cy="9" r="6"/><path d="M8.2 14.5 6 22l6-3 6 3-2.2-7.5"/>
  </symbol>
  <symbol id="i-globe" viewBox="0 0 24 24" fill="none" stroke="currentColor" stroke-width="1.6" stroke-linecap="round" stroke-linejoin="round">
    <circle cx="12" cy="12" r="9"/><path d="M3 12h18M12 3c2.6 2.4 4 5.6 4 9s-1.4 6.6-4 9c-2.6-2.4-4-5.6-4-9s1.4-6.6 4-9Z"/>
  </symbol>
  <symbol id="i-layers" viewBox="0 0 24 24" fill="none" stroke="currentColor" stroke-width="1.6" stroke-linecap="round" stroke-linejoin="round">
    <path d="m12 3 9 5-9 5-9-5 9-5Z"/><path d="m3 13 9 5 9-5"/>
  </symbol>
  <symbol id="i-headset" viewBox="0 0 24 24" fill="none" stroke="currentColor" stroke-width="1.6" stroke-linecap="round" stroke-linejoin="round">
    <path d="M4 13v-1a8 8 0 0 1 16 0v1"/><rect x="2.5" y="13" width="4" height="6" rx="1.4"/><rect x="17.5" y="13" width="4" height="6" rx="1.4"/><path d="M20 19v1a3 3 0 0 1-3 3h-3"/>
  </symbol>
  <symbol id="i-factory" viewBox="0 0 24 24" fill="none" stroke="currentColor" stroke-width="1.6" stroke-linecap="round" stroke-linejoin="round">
    <path d="M3 21V10l6 4V10l6 4V6l6 2v13H3Z"/><path d="M7 21v-4M12 21v-4M17 21v-4"/>
  </symbol>
  <symbol id="i-bolt" viewBox="0 0 24 24" fill="none" stroke="currentColor" stroke-width="1.6" stroke-linecap="round" stroke-linejoin="round">
    <path d="M13 2 4 14h7l-1 8 9-12h-7l1-8Z"/>
  </symbol>
  <symbol id="i-drop" viewBox="0 0 24 24" fill="none" stroke="currentColor" stroke-width="1.6" stroke-linecap="round" stroke-linejoin="round">
    <path d="M12 3s6 6.4 6 10.5A6 6 0 0 1 6 13.5C6 9.4 12 3 12 3Z"/>
  </symbol>
  <symbol id="i-building" viewBox="0 0 24 24" fill="none" stroke="currentColor" stroke-width="1.6" stroke-linecap="round" stroke-linejoin="round">
    <rect x="4" y="3" width="16" height="18" rx="1.5"/><path d="M8 7h2M14 7h2M8 11h2M14 11h2M8 15h2M14 15h2M10 21v-3h4v3"/>
  </symbol>
  <symbol id="i-health" viewBox="0 0 24 24" fill="none" stroke="currentColor" stroke-width="1.6" stroke-linecap="round" stroke-linejoin="round">
    <path d="M20.8 5.6a5 5 0 0 0-8.8-1.2A5 5 0 0 0 3.2 5.6C1.7 8.3 3 11.2 5 13.2l7 7 7-7c2-2 3.3-4.9 1.8-7.6Z"/><path d="M8 12h2l1.5-3 1.5 5 1.2-2H17"/>
  </symbol>
  <symbol id="i-shield" viewBox="0 0 24 24" fill="none" stroke="currentColor" stroke-width="1.6" stroke-linecap="round" stroke-linejoin="round">
    <path d="M12 3 5 6v6c0 4.4 3 7.6 7 9 4-1.4 7-4.6 7-9V6l-7-3Z"/><path d="m9 12 2 2 4-4"/>
  </symbol>
  <symbol id="i-arrow" viewBox="0 0 24 24" fill="none" stroke="currentColor" stroke-width="1.8" stroke-linecap="round" stroke-linejoin="round">
    <path d="M5 12h14M13 6l6 6-6 6"/>
  </symbol>
  <symbol id="i-arrow-l" viewBox="0 0 24 24" fill="none" stroke="currentColor" stroke-width="1.8" stroke-linecap="round" stroke-linejoin="round">
    <path d="M19 12H5M11 6l-6 6 6 6"/>
  </symbol>
  <symbol id="i-phone" viewBox="0 0 24 24" fill="none" stroke="currentColor" stroke-width="1.6" stroke-linecap="round" stroke-linejoin="round">
    <path d="M4 5c0 8.3 6.7 15 15 15l1.5-3.3-4-2-2 2c-2.6-1.3-4.9-3.6-6.2-6.2l2-2-2-4L4 5Z"/>
  </symbol>
  <symbol id="i-mail" viewBox="0 0 24 24" fill="none" stroke="currentColor" stroke-width="1.6" stroke-linecap="round" stroke-linejoin="round">
    <rect x="3" y="5" width="18" height="14" rx="2"/><path d="m3 7 9 6 9-6"/>
  </symbol>
  <symbol id="i-pin" viewBox="0 0 24 24" fill="none" stroke="currentColor" stroke-width="1.6" stroke-linecap="round" stroke-linejoin="round">
    <path d="M12 21c4-4.5 7-7.9 7-11a7 7 0 1 0-14 0c0 3.1 3 6.5 7 11Z"/><circle cx="12" cy="10" r="2.5"/>
  </symbol>
  <symbol id="i-search" viewBox="0 0 24 24" fill="none" stroke="currentColor" stroke-width="1.7" stroke-linecap="round" stroke-linejoin="round">
    <circle cx="11" cy="11" r="7"/><path d="m20 20-3.5-3.5"/>
  </symbol>
  <symbol id="i-menu" viewBox="0 0 24 24" fill="none" stroke="currentColor" stroke-width="1.8" stroke-linecap="round"><path d="M4 7h16M4 12h16M4 17h16"/></symbol>
  <symbol id="i-close" viewBox="0 0 24 24" fill="none" stroke="currentColor" stroke-width="1.8" stroke-linecap="round"><path d="M6 6l12 12M18 6 6 18"/></symbol>
  <symbol id="i-quote" viewBox="0 0 24 24" fill="currentColor"><path d="M10 7H5a3 3 0 0 0-3 3v7h7v-7H4a2 2 0 0 1 2-2h4V7Zm12 0h-5a3 3 0 0 0-3 3v7h7v-7h-3a2 2 0 0 1 2-2h2V7Z"/></symbol>
  <symbol id="i-check" viewBox="0 0 24 24" fill="none" stroke="currentColor" stroke-width="2" stroke-linecap="round" stroke-linejoin="round"><path d="m5 12 5 5 9-11"/></symbol>
  <symbol id="i-plus" viewBox="0 0 24 24" fill="none" stroke="currentColor" stroke-width="1.8" stroke-linecap="round"><path d="M12 5v14M5 12h14"/></symbol>
  <symbol id="i-clock" viewBox="0 0 24 24" fill="none" stroke="currentColor" stroke-width="1.6" stroke-linecap="round" stroke-linejoin="round"><circle cx="12" cy="12" r="9"/><path d="M12 7v5l3.5 2"/></symbol>
  <symbol id="i-star" viewBox="0 0 24 24" fill="none" stroke="currentColor" stroke-width="1.6" stroke-linecap="round" stroke-linejoin="round"><path d="m12 3 2.7 5.5 6 .9-4.3 4.2 1 6-5.4-2.8-5.4 2.8 1-6L3.3 9.4l6-.9L12 3Z"/></symbol>
  <symbol id="i-handshake" viewBox="0 0 24 24" fill="none" stroke="currentColor" stroke-width="1.6" stroke-linecap="round" stroke-linejoin="round"><path d="m11 17-2 2-3-3 4-4 2 1 3-3 5 5-2.5 2.5"/><path d="M3 8l3-3 5 3M21 8l-3-3-3 2"/></symbol>
  <symbol id="i-flame" viewBox="0 0 24 24" fill="none" stroke="currentColor" stroke-width="1.6" stroke-linecap="round" stroke-linejoin="round"><path d="M12 3c1 3 4 4.5 4 8a4 4 0 0 1-8 0c0-1.2.4-2 1-2.8C9.5 9.8 11 8 12 3Z"/><path d="M12 21a5 5 0 0 0 5-5c0-3-2-5-3.5-7"/></symbol>
  <symbol id="i-shop" viewBox="0 0 24 24" fill="none" stroke="currentColor" stroke-width="1.6" stroke-linecap="round" stroke-linejoin="round"><path d="M4 9h16l-1 11H5L4 9Z"/><path d="M4 9 6 4h12l2 5M9 13h6"/></symbol>
  <symbol id="i-eye" viewBox="0 0 24 24" fill="none" stroke="currentColor" stroke-width="1.6" stroke-linecap="round" stroke-linejoin="round"><path d="M2 12s3.5-7 10-7 10 7 10 7-3.5 7-10 7-10-7-10-7Z"/><circle cx="12" cy="12" r="3"/></symbol>
  <symbol id="i-target" viewBox="0 0 24 24" fill="none" stroke="currentColor" stroke-width="1.6" stroke-linecap="round" stroke-linejoin="round"><circle cx="12" cy="12" r="9"/><circle cx="12" cy="12" r="5"/><circle cx="12" cy="12" r="1.4" fill="currentColor"/></symbol>
  <symbol id="i-chevron" viewBox="0 0 24 24" fill="none" stroke="currentColor" stroke-width="2" stroke-linecap="round" stroke-linejoin="round"><path d="m6 9 6 6 6-6"/></symbol>
</svg>
