<svg width="46" height="59" viewBox="0 0 46 59" fill="none" xmlns="http://www.w3.org/2000/svg">
<path d="M29.2458 0.000102997H31.8719L31.9022 0.0228263C32.3422 0.347604 33.1783 0.659443 33.5822 1.05525C34.2355 1.69546 34.9004 2.3922 35.5394 3.05014L39.5425 7.18407C40.3153 7.98166 41.097 8.77057 41.8874 9.55065C43.0555 10.7066 44.0847 11.4486 44.3779 13.1878C44.8381 15.9174 42.3022 17.9697 40.5344 19.7182L37.1682 23.083L34.1236 26.1409C33.4713 26.7939 32.7135 27.6022 31.9864 28.1451C33.7163 29.7217 35.5109 31.644 37.2128 33.287C38.7276 34.7336 40.2191 36.2046 41.6866 37.6992C43.0743 39.086 44.9319 40.542 45.021 42.6393C45.0787 43.9975 44.4302 45.1727 43.5558 46.1698C41.8231 47.9953 39.9167 49.7317 38.1172 51.5015C37.0114 52.6097 35.8916 53.7034 34.7582 54.7825C33.3639 56.1358 32.193 57.4358 30.3088 58.0486C30.1531 58.0988 29.9032 58.1834 29.7698 58.2567H28.7409C28.6071 58.1762 27.8779 57.9251 27.6629 57.832C26.9982 57.528 26.2204 56.9812 25.697 56.4719C24.0629 54.8811 22.4112 53.2913 20.7819 51.6969L18.9761 49.9271C18.4991 49.4576 17.6259 48.7384 17.5491 48.0554C17.4979 47.6 18.1902 46.9057 18.5921 46.9586C19.2833 47.0495 20.088 47.9591 20.572 48.4254C21.3168 49.1355 22.0492 49.8583 22.769 50.5933C23.6911 51.5242 24.6702 52.4315 25.602 53.3759C26.4345 54.167 27.2122 55.0607 28.1378 55.7419C28.4147 55.9459 29.0586 56.1363 29.3945 56.125C29.8008 56.1105 30.5843 55.8133 30.888 55.5261C32.1482 54.3334 33.4324 53.0706 34.6707 51.8575L38.4386 48.159C39.7534 46.8844 41.1768 45.6347 42.3448 44.2233C42.5913 43.9255 42.7363 43.1129 42.7293 42.7245C42.7222 42.2793 42.5825 41.8463 42.3281 41.4809C42.0957 41.154 41.4471 40.511 41.1492 40.2085L38.9186 37.975L30.6123 29.8176C30.5563 29.6603 29.4067 28.5432 29.2727 28.5276C29.1612 28.2883 27.3889 26.6045 27.0607 26.28L20.7855 19.9895L18.814 18.0184C17.386 16.5878 16.0616 15.3472 16.4594 13.1079C16.7175 11.6549 17.923 10.6505 18.9075 9.66156C19.9073 8.64754 20.914 7.64035 21.9276 6.64009L25.2976 3.26756C26.017 2.53854 26.721 1.77549 27.4842 1.09333C28.017 0.617243 28.6592 0.408981 29.2095 0.025734L29.2458 0.000102997ZM30.5343 26.6518L30.8086 26.3827C31.8139 25.3371 32.8423 24.3426 33.8652 23.317C35.1951 21.958 36.5385 20.6123 37.8952 19.2801C38.7649 18.4314 39.6272 17.5752 40.4818 16.7114C41.2419 15.9425 42.3616 15.0286 42.332 13.8601C42.3232 13.5118 42.2106 13.1741 42.0088 12.8902C41.559 12.2605 40.8976 11.6362 40.3431 11.0779L38.1327 8.84393L33.8724 4.47528C33.3591 3.958 32.8543 3.43152 32.3335 2.92075C31.6698 2.26975 31.0774 2.21848 30.1838 2.25602C30.1301 2.25843 30.0765 2.26223 30.0231 2.26741C28.8051 2.55607 28.3428 3.2927 27.5022 4.14536L25.2921 6.35812C23.8617 7.76926 22.4395 9.18872 21.0257 10.6164C20.3262 11.3208 19.5418 12.0252 18.9635 12.8268C18.7944 13.0613 18.7322 13.3247 18.6979 13.6056C18.5131 15.1164 20.2261 16.3248 21.2047 17.3137L25.8314 21.9335L29.0989 25.2173C29.5388 25.6584 30.0716 26.2732 30.5343 26.6518Z" fill="#558BAD"/>
<path d="M0.825986 29.4488C1.70495 28.0458 2.43017 27.4643 3.6025 26.3033L6.4268 23.4855L9.10878 20.7929C10.062 19.8188 11.0724 18.5803 12.3519 18.0523C13.2172 17.7029 14.7224 17.6327 15.5743 18.043C17.0615 18.7594 18.4651 20.4567 19.6203 21.626L24.4317 26.4348C24.79 26.7924 25.1743 27.1671 25.5303 27.5228C26.7701 28.7613 27.5687 29.2233 29.2725 28.5275C29.4065 28.5431 30.5562 29.6603 30.6121 29.8176C29.998 30.4832 29.0174 30.8628 28.1318 30.8895C26.5073 30.9385 25.1864 30.2215 24.0517 29.1153C23.2455 28.3294 22.4559 27.5412 21.6602 26.7457L17.5874 22.6671C16.8328 21.9088 16.031 20.9771 15.2045 20.3227C14.6896 19.9151 13.5555 19.8349 12.989 20.1619C12.2869 20.5435 11.6688 21.2491 11.1117 21.8193C10.4312 22.5195 9.7472 23.2162 9.05952 23.9093C7.19246 25.7899 5.26591 27.616 3.44443 29.5393C2.88515 30.1299 2.63963 30.5772 2.66888 31.3919C2.7084 32.4925 3.50345 33.0909 4.21136 33.8047L6.16519 35.7698C7.51884 37.1478 8.8814 38.5169 10.2528 39.8772C10.9308 40.5513 11.5827 41.2312 12.289 41.8805C12.857 42.4027 13.3326 42.605 14.1047 42.5691C14.9211 42.5311 15.5625 42.0008 16.1192 41.4574C16.6954 40.8949 17.2567 40.3186 17.827 39.7514L22.49 35.0944C22.8738 34.7073 23.2696 34.3146 23.6506 33.9264C24.1734 33.3939 24.4153 33.1097 25.165 32.894C25.4772 32.9876 25.9353 33.1091 26.0751 33.432C26.535 34.4933 24.8846 35.7677 24.2303 36.412L22.1485 38.4889C20.4774 40.1576 18.8109 41.8357 17.1016 43.4508C15.8394 44.6433 14.3421 45.2371 12.6504 44.6379C11.3975 44.1941 9.90334 42.5738 8.96002 41.6408L6.44101 39.1616L3.8178 36.5419C2.71135 35.4424 1.59772 34.4429 0.825986 33.0687C-0.314249 31.6572 -0.235502 30.8603 0.825986 29.4488Z" fill="#7CAAC6"/>
</svg>
